<svg id="Layer_5" enable-background="new 0 0 62 62" height="512" viewBox="0 0 62 62" width="512" xmlns="http://www.w3.org/2000/svg"><g><g><g><path d="m42 9c-.66 0-1.3.08-1.92.21-1.91-4.81-6.59-8.21-12.08-8.21-5.98 0-11.01 4.03-12.53 9.53-.75-.34-1.59-.53-2.47-.53-1.48 0-2.84.54-3.89 1.44-1.05.89-1.79 2.14-2.03 3.56-.02 0-.05 0-.08 0-3.31 0-6 2.69-6 6s2.69 6 6 6h35c4.97 0 9-4.03 9-9s-4.03-9-9-9z" fill="#e6e9ed"/></g><g><path d="m35 20v5h-24v-5c0-1.66 1.34-3 3-3h4.66 13.34c1.66 0 3 1.34 3 3z" fill="#969faa"/></g><g><path d="m35 53v5c0 1.66-1.34 3-3 3h-18c-1.66 0-3-1.34-3-3v-5z" fill="#969faa"/></g><g><path d="m11 25h24v28h-24z" fill="#69d6f4"/></g><g><path d="m37 43v1.28c-.57.66-1.24 1.21-2 1.65-1.17.68-2.54 1.07-4 1.07-3.36 0-6.23-2.07-7.41-5h-12.59v-6h12.59c1.18-2.93 4.05-5 7.41-5 1.46 0 2.83.39 4 1.07.76.44 1.43.99 2 1.65v1.28h-3c-1.1 0-2.1.45-2.83 1.17-.72.73-1.17 1.73-1.17 2.83 0 2.21 1.79 4 4 4z" fill="#ccd1d9"/></g><g><path d="m59.31 35.54v.02c.27.64.79 1.14 1.45 1.36l.24.08v4l-.24.08c-.66.22-1.18.72-1.45 1.36v.02c-.27.63-.25 1.35.06 1.97l.12.23-2.83 2.83-.23-.12c-.62-.31-1.34-.33-1.97-.06-.01 0-.02 0-.02 0-.64.27-1.14.79-1.36 1.45l-.08.24h-4l-.08-.24c-.22-.66-.72-1.18-1.36-1.45 0 0-.01 0-.02 0-.63-.27-1.35-.25-1.97.06l-.23.12-2.83-2.83.12-.23c.31-.62.33-1.34.06-1.97 0-.01 0-.02 0-.02-.27-.64-.79-1.14-1.45-1.36l-.24-.08v-4l.24-.08c.66-.22 1.18-.72 1.45-1.36 0 0 0-.01 0-.02.27-.63.25-1.35-.06-1.97l-.12-.23 2.83-2.83.23.12c.62.31 1.34.33 1.97.06h.02c.64-.27 1.14-.79 1.36-1.45l.08-.24h4l.08.24c.22.66.72 1.18 1.36 1.45h.02c.63.27 1.35.25 1.97-.06l.23-.12 2.83 2.83-.12.23c-.31.62-.33 1.34-.06 1.97zm-8.31 9.46c3.31 0 6-2.69 6-6s-2.69-6-6-6-6 2.69-6 6 2.69 6 6 6z" fill="#ed5565"/></g><g><path d="m51 33c3.31 0 6 2.69 6 6s-2.69 6-6 6-6-2.69-6-6 2.69-6 6-6zm2 6c0-1.1-.9-2-2-2s-2 .9-2 2 .9 2 2 2 2-.9 2-2z" fill="#ef7385"/></g></g><g><path d="m22 20h4v2h-4z"/><path d="m20 56h6v2h-6z"/><path d="m61.073 35.97c-.376-.125-.681-.412-.844-.809-.154-.372-.141-.789.036-1.142l.438-.874-3.849-3.849-.873.438c-.354.177-.771.189-1.164.026-.375-.153-.661-.458-.787-.834l-.309-.926h-5.441l-.309.927c-.125.376-.412.681-.809.844-.373.153-.789.141-1.142-.036l-.874-.438-3.849 3.849.438.873c.177.354.19.77.026 1.164-.153.375-.458.661-.834.787l-.927.309v5.441l.927.309c.376.125.681.412.844.809.154.372.141.789-.036 1.142l-.438.874 3.849 3.849.873-.438c.354-.178.771-.19 1.164-.026.375.153.661.458.787.834l.309.927h5.441l.309-.927c.125-.376.412-.681.809-.844.371-.155.788-.142 1.142.036l.874.438 3.849-3.849-.438-.873c-.177-.354-.19-.77-.027-1.164.154-.375.458-.662.835-.787l.927-.309v-5.441zm-1.073 4.345c-.723.362-1.299.98-1.619 1.759-.314.759-.342 1.596-.087 2.36l-1.86 1.86c-.764-.253-1.603-.225-2.377.094-.764.313-1.379.888-1.742 1.612h-2.63c-.363-.724-.98-1.299-1.759-1.619-.759-.315-1.598-.342-2.36-.087l-1.86-1.86c.254-.764.226-1.604-.094-2.378-.314-.764-.889-1.379-1.612-1.741v-2.63c.724-.363 1.299-.98 1.619-1.759.314-.759.342-1.596.087-2.36l1.86-1.86c.765.254 1.604.226 2.377-.094.764-.313 1.379-.888 1.742-1.612h2.63c.363.724.98 1.299 1.759 1.619.758.314 1.597.341 2.36.087l1.86 1.86c-.254.764-.226 1.604.094 2.377.313.764.888 1.379 1.612 1.742z"/><path d="m51 32c-3.86 0-7 3.14-7 7s3.14 7 7 7 7-3.14 7-7-3.14-7-7-7zm0 12c-2.757 0-5-2.243-5-5s2.243-5 5-5 5 2.243 5 5-2.243 5-5 5z"/><path d="m51 36c-1.654 0-3 1.346-3 3s1.346 3 3 3 3-1.346 3-3-1.346-3-3-3zm0 4c-.551 0-1-.449-1-1s.449-1 1-1 1 .449 1 1-.449 1-1 1z"/><path d="m34 42c-1.654 0-3-1.346-3-3s1.346-3 3-3h4v-2.659l-.249-.283c-.518-.589-1.112-1.092-1.75-1.521v-3.537h6c5.514 0 10-4.486 10-10s-4.487-10-10.001-10c-.436 0-.876.03-1.317.089-2.295-4.941-7.187-8.089-12.683-8.089-5.922 0-11.194 3.76-13.173 9.261-.588-.16-1.198-.261-1.827-.261-3.157 0-5.865 2.075-6.722 5.037-3.522.362-6.278 3.347-6.278 6.963 0 3.86 3.14 7 7 7h3v30c0 2.206 1.794 4 4 4h18c2.206 0 4-1.794 4-4v-11.537c.639-.429 1.234-.932 1.752-1.522l.25-.284-.003-2.657zm0-8c-2.757 0-5 2.243-5 5s2.243 5 5 5h1.89c-1.303 1.277-3.057 2-4.89 2-2.863 0-5.409-1.717-6.486-4.375l-.253-.625h-12.261v-4h12.261l.253-.625c1.077-2.658 3.623-4.375 6.486-4.375 1.833 0 3.587.723 4.89 2zm0-10h-22v-4c0-1.103.897-2 2-2h18c1.103 0 2 .897 2 2zm-3 6c-3.453 0-6.546 1.941-8.06 5h-10.94v-9h22v4.526c-.955-.34-1.966-.526-3-.526zm-24-4c-2.757 0-5-2.243-5-5s2.243-5 5.065-5l.861.015.143-.85c.405-2.413 2.478-4.165 4.931-4.165 2.116 0 4.011 1.339 4.716 3.333l1.886-.666c-.544-1.539-1.604-2.783-2.933-3.604 1.66-4.782 6.21-8.063 11.331-8.063 4.944 0 9.32 2.975 11.148 7.58l.313.789.83-.181c.571-.125 1.146-.188 1.709-.188 4.411 0 8 3.589 8 8s-3.589 8-8 8h-6v-6c0-2.206-1.794-4-4-4h-18c-2.206 0-4 1.794-4 4v6zm25 34h-18c-1.103 0-2-.897-2-2v-4h22v4c0 1.103-.897 2-2 2zm2-8h-22v-9h10.94c1.514 3.059 4.607 5 8.06 5 1.034 0 2.045-.186 3-.525z"/><path d="m28 6c3.386 0 6.417 2.143 7.545 5.333l1.886-.666c-1.41-3.988-5.2-6.667-9.431-6.667-1.56 0-3.056.35-4.445 1.04l.89 1.791c1.11-.551 2.306-.831 3.555-.831z"/><path d="m22.667 8.038-1.333-1.491c-.626.561-1.181 1.199-1.649 1.897l1.662 1.112c.374-.559.818-1.07 1.32-1.518z"/><path d="m48 18c0-3.309-2.691-6-6-6v2c2.206 0 4 1.794 4 4s-1.794 4-4 4v2c3.309 0 6-2.691 6-6z"/><path d="m6 32h-2v2h-2v2h2v2h2v-2h2v-2h-2z"/><path d="m6 40h-2v2h-2v2h2v2h2v-2h2v-2h-2z"/><path d="m6 48h-2v2h-2v2h2v2h2v-2h2v-2h-2z"/><path d="m56 10h2v-2h2v-2h-2v-2h-2v2h-2v2h2z"/><path d="m56 18h2v-2h2v-2h-2v-2h-2v2h-2v2h2z"/><path d="m56 26h2v-2h2v-2h-2v-2h-2v2h-2v2h2z"/></g></g></svg>