<svg id="Layer_1" enable-background="new 0 0 511.874 511.874" height="512" viewBox="0 0 511.874 511.874" width="512" xmlns="http://www.w3.org/2000/svg" xmlns:xlink="http://www.w3.org/1999/xlink"><linearGradient id="SVGID_1_" gradientUnits="userSpaceOnUse" x1="0" x2="511.874" y1="255.937" y2="255.937"><stop offset="0" stop-color="#87f1fc"/><stop offset=".2557" stop-color="#7fd4fb"/><stop offset=".5295" stop-color="#78bcfb"/><stop offset=".7844" stop-color="#74aefa"/><stop offset="1" stop-color="#73a9fa"/></linearGradient><path d="m480.906 118.177-174.795-72.489c-34.673-12.901-65.574-12.898-100.268.019l-174.739 72.466c-17.575 7.238-31.104 24.686-31.104 41.686v164c1.056 26.536 38.953 26.516 40 0v-115.672l55.952 22.882c-.861 1.92-21.952 51.012-21.952 168.455 0 10.415 8.021 19.089 18.402 19.937.777.063 78.656 6.885 154.532 53.445 6.418 3.938 14.503 3.938 20.921 0 75.959-46.612 153.159-54.099 153.93-54.169 10.989-.984 19.107-10.683 18.138-21.677-.971-11.004-10.681-19.142-21.68-18.166-3.367.297-80.225 7.543-160.854 53.719-58.268-33.307-114.915-46.017-143.228-50.613 1.757-94.22 18.904-135.295 19.071-135.685l72.657 29.714c15.41 6.347 32.705 9.745 50.015 9.829h.193c17.31-.084 34.604-3.482 49.97-9.811l75.121-30.722c1.25 3.183 8.456 22.459 12.867 54.278 1.387 10.01 9.958 17.257 19.785 17.257.914-.001 1.84-.063 2.771-.192 10.941-1.517 18.582-11.615 17.065-22.557-5.048-36.424-13.02-58.567-15.18-64.043l62.401-25.52c41.306-16.639 41.297-69.733.009-86.371zm-15.197 49.367-174.83 71.499c-10.656 4.389-22.714 6.744-34.88 6.815-12.166-.071-24.224-2.428-34.925-6.834l-144.672-59.165h179.598c26.536-1.056 26.516-38.953 0-40h-172.769l137.889-57.185c10.103-4.16 27.406-6.814 34.88-6.814s24.778 2.654 34.834 6.796l174.785 72.485c.015.006.03.013.045.019 8.333 3.493 8.352 8.889.045 12.384z" fill="url(#SVGID_1_)"/></svg>