<svg id="Layer_5" enable-background="new 0 0 64 64" height="512" viewBox="0 0 64 64" width="512" xmlns="http://www.w3.org/2000/svg" xmlns:xlink="http://www.w3.org/1999/xlink"><linearGradient id="SVGID_1_" gradientUnits="userSpaceOnUse" x1="32" x2="32" y1="63" y2="1"><stop offset="0" stop-color="#9f2fff"/><stop offset="1" stop-color="#0bb1d3"/></linearGradient><path d="m26 47h2v2h-2zm-8 2h2v-2h-2zm4 0h2v-2h-2zm-21-1v-24c0-2.757 2.243-5 5-5h7v-15c0-1.654 1.346-3 3-3h44c1.654 0 3 1.346 3 3v40c0 1.654-1.346 3-3 3h-15v1c0 2.757-2.243 5-5 5h-9.612l1.333 4h3.279c1.654 0 3 1.346 3 3v3h-30v-3c0-1.654 1.346-3 3-3h3.279l1.333-4h-9.612c-2.757 0-5-2.243-5-5zm34 11h-24c-.551 0-1 .449-1 1v1h26v-1c0-.551-.449-1-1-1zm-6.721-6h-10.558l-1.333 4h13.225zm14.721-5v-3h-40v3c0 1.654 1.346 3 3 3h34c1.654 0 3-1.346 3-3zm2-7h12v-14h-12zm-30-37v5h46v-5c0-.551-.449-1-1-1h-44c-.551 0-1 .449-1 1zm0 15h25c2.757 0 5 2.243 5 5v1h14v18h-14v2h15c.551 0 1-.449 1-1v-33h-46zm-12 5v19h40v-19c0-1.654-1.346-3-3-3h-34c-1.654 0-3 1.346-3 3zm20-19h-2v2h2zm-4 0h-2v2h2zm8 0h-2v2h2zm-10 10h2v-2h-2zm42-2h-38v2h38zm-12 6h12v-2h-12zm0 4h12v-2h-12zm-42 15v-12c0-1.654 1.346-3 3-3h20c1.654 0 3 1.346 3 3v12c0 1.654-1.346 3-3 3h-20c-1.654 0-3-1.346-3-3zm2 0c0 .551.449 1 1 1h20c.551 0 1-.449 1-1v-12c0-.551-.449-1-1-1h-20c-.551 0-1 .449-1 1zm13.949-11.684-1.897-.633-4 12 1.897.633zm1.758 10.391 4.707-4.707-4.707-4.707-1.414 1.414 3.293 3.293-3.293 3.293zm-8-1.414-3.293-3.293 3.293-3.293-1.414-1.414-4.707 4.707 4.707 4.707zm26.293-12.293h-8v2h8zm0 4h-8v2h8zm0 4h-8v2h8zm0 4h-8v2h8zm-6 6h2v-2h-2zm4 0h2v-2h-2z" fill="url(#SVGID_1_)"/></svg>